<svg xmlns="http://www.w3.org/2000/svg" xmlns:xlink="http://www.w3.org/1999/xlink" width="20" height="20" viewBox="0 0 20 20">
    <defs>
        <circle id="prefix__a" cx="10" cy="10" r="10"/>
        <path id="prefix__c" d="M0 0H20V20H0z"/>
    </defs>
    <g fill="none" fill-rule="evenodd">
        <mask id="prefix__b" fill="#fff">
            <use xlink:href="#prefix__a"/>
        </mask>
        <use fill="#D8D8D8" xlink:href="#prefix__a"/>
        <g mask="url(#prefix__b)">
            <use fill="#121212" xlink:href="#prefix__c"/>
            <use fill="#FFF" fill-opacity=".18" xlink:href="#prefix__c"/>
        </g>
        <g fill-rule="nonzero" mask="url(#prefix__b)">
            <g>
                <path fill="#EDEBED" d="M12.024 12.233l-2.839-.835h-4.93l-2.84.835c-.687.202-1.16.834-1.16 1.55v3.168h12.93v-3.167c0-.717-.473-1.349-1.16-1.55z" transform="translate(3 4)"/>
                <path fill="#A5CDFF" d="M8.067 16.951L5.373 16.951 4.835 11.564 8.605 11.564z" transform="translate(3 4)"/>
                <path fill="#8CB4EB" d="M4.957 12.79c.473.41 1.088.66 1.763.66.675 0 1.29-.25 1.763-.66l.122-1.226h-3.77l.122 1.226z" transform="translate(3 4)"/>
                <path fill="#F7D291" d="M6.72 12.642c-1.041 0-1.885-.844-1.885-1.886V8.871h3.77v1.885c0 1.042-.844 1.886-1.885 1.886z" transform="translate(3 4)"/>
                <path fill="#F0C382" d="M4.835 10.28c.566.302 1.207.476 1.885.476.678 0 1.32-.174 1.885-.476V8.87h-3.77v1.41z" transform="translate(3 4)"/>
                <path fill="#FFE1A0" d="M10.625 5.37h-.404V2.675H3.22V5.37h-.404c-.372 0-.674.302-.674.674 0 .372.302.673.674.673h.417C3.37 8.524 4.877 9.948 6.72 9.948s3.35-1.424 3.488-3.232h.418c.371 0 .673-.301.673-.673 0-.372-.302-.674-.674-.674z" transform="translate(3 4)"/>
                <path fill="#F7D291" d="M3.219 2.676V5.37h-.377c-.307 0-.593.195-.673.491-.12.448.22.856.65.856h.413C3.37 8.524 4.877 9.948 6.72 9.948c.184 0 .364-.018.54-.045-1.678-.26-2.964-1.705-2.964-3.456V4.754c0-.487.43-.851.913-.794.25.03.52.047.807.047.804 0 1.7-.128 2.66-.38.534-.14.98-.49 1.254-.95H3.219z" transform="translate(3 4)"/>
                <path fill="#A06E50" d="M4.532 1.599l.033 1.077s-.808.808-.808 1.886v.332c0 .272-.202.5-.472.534l-.605.076v-2.29c0-.892.842-1.66 1.852-1.615z" transform="translate(3 4)"/>
                <path fill="#DBD9DC" d="M9.947 12.906l-.534-.534.571-.76c.124-.166.068-.402-.116-.494l-1.263-.631-1.885 6.464h1.616l1.712-3.423c.104-.208.063-.458-.101-.622z" transform="translate(3 4)"/>
                <path fill="#CD916E" d="M8.908.79l-.033 1.886s.808.808.808 1.885v.333c0 .272.202.5.472.534l.605.076V2.407c0-.893-.842-1.661-1.852-1.616z" transform="translate(3 4)"/>
                <path fill="#DBD9DC" d="M3.493 12.906l.534-.534-.571-.76c-.124-.166-.068-.402.116-.494l1.263-.631 1.885 6.464H5.104l-1.712-3.423c-.103-.208-.063-.458.101-.622z" transform="translate(3 4)"/>
                <path fill="#B67F5F" d="M7.242.252c-2.247 0-2.678.683-4.408 1.234-.12.038-.173.176-.106.281.376.587 1.774 2.118 5.744 1.079.465-.122.822-.497.917-.968.109-.546-.223-1.087-.722-1.334C8.271.347 7.751.252 7.242.252z" transform="translate(3 4)"/>
                <path fill="#A5CDFF" d="M1.602 15.335H4.295V16.951H1.602z" transform="translate(3 4)"/>
                <path fill="#000" d="M5.104 5.387c-.14 0-.252.113-.252.252v.27c0 .138.113.251.252.251.14 0 .252-.113.252-.252v-.27c0-.138-.113-.251-.252-.251zM8.336 5.387c-.14 0-.252.113-.252.252v.27c0 .138.113.251.252.251.14 0 .252-.113.252-.252v-.27c0-.138-.113-.251-.252-.251zM7.705 7.704c.1-.098.1-.258.002-.357-.097-.099-.257-.1-.356-.002-.092.09-.312.197-.63.197-.32 0-.54-.106-.632-.197-.1-.098-.259-.097-.356.002-.098.1-.097.259.002.357.217.214.585.342.985.342s.768-.128.985-.342zM5.373 4.579h-.538c-.14 0-.252.113-.252.252s.112.252.252.252h.538c.14 0 .252-.113.252-.252 0-.14-.112-.252-.252-.252zM8.067 5.083h.538c.14 0 .252-.113.252-.252 0-.14-.112-.252-.252-.252h-.538c-.14 0-.252.113-.252.252s.113.252.252.252z" transform="translate(3 4)"/>
                <path fill="#000" d="M12.117 12.003l-1.816-.558c.003-.055-.001-.11-.014-.165-.04-.169-.152-.31-.306-.387l-1.124-.562v-.8c.84-.585 1.432-1.504 1.58-2.563h.15c.491 0 .912-.365.96-.83.025-.262-.06-.522-.235-.716-.085-.094-.187-.168-.3-.22V2.408c0-1.03-.838-1.868-1.868-1.868h-.042C8.648.204 7.982 0 7.242 0 5.668 0 4.945.328 4.107.708c-.447.202-.91.412-1.565.604-.069.02-.126.069-.157.133-.03.065-.033.14-.005.206.008.018.12.28.41.597-.125.155-.362.55-.362 1.326v1.64c-.29.138-.502.412-.534.734-.026.261.06.522.234.716.175.193.426.304.687.304h.188c.147 1.06.739 1.978 1.58 2.563v.8l-1.124.562c-.154.077-.266.218-.306.387-.013.054-.017.11-.014.165l-1.816.558c-.79.243-1.32.96-1.32 1.786v3.162c0 .14.114.252.253.252s.252-.113.252-.252V13.79c0-.603.387-1.127.963-1.304l1.89-.58.333.444-.379.379c-.241.24-.3.607-.148.912l.721 1.443h-.687v-.287c0-.139-.113-.252-.252-.252s-.252.113-.252.252v.287H1.603c-.14 0-.252.113-.252.252v1.616c0 .14.112.252.252.252h2.693c.14 0 .252-.113.252-.252v-.548l.33.66c.045.09.134.14.226.14.038 0 .077-.008.113-.026.124-.063.175-.214.112-.339l-1.711-3.423c-.056-.11-.034-.244.053-.331l.534-.533c.089-.09.098-.23.023-.33l-.57-.761c-.02-.025-.017-.051-.014-.065.003-.013.012-.037.04-.051l.993-.497.701 2.403c.039.133.179.21.312.171.134-.039.21-.179.172-.312l-.11-.379c.31.108.637.164.968.164.331 0 .659-.056.969-.164l-.969 3.321-.544-1.864c-.039-.134-.179-.21-.312-.172-.134.04-.21.18-.172.313l.786 2.694c.032.107.13.181.242.181.112 0 .21-.074.242-.181l1.8-6.175.993.497c.029.014.038.038.041.051.003.014.006.04-.013.065l-.571.761c-.075.1-.065.24.023.33l.534.533c.087.087.109.22.054.33L8.11 16.84c-.063.124-.012.275.112.338.037.018.075.026.113.026.092 0 .181-.05.226-.139l1.711-3.424c.153-.304.093-.671-.148-.912l-.379-.38.334-.444 1.89.581c.575.177.962.701.962 1.304v3.162c0 .14.113.252.252.252.14 0 .252-.113.252-.252V13.79c0-.826-.53-1.543-1.319-1.786zM4.044 16.7h-2.19v-1.112h.843v.017c0 .14.113.252.252.252.14 0 .252-.112.252-.252v-.017h.843V16.7zm.271-15.532C5.132.797 5.777.504 7.242.504c.93 0 1.76.39 1.932.905.044.132.187.203.32.16.131-.045.203-.187.159-.32-.015-.043-.032-.085-.052-.127.528.188.907.693.907 1.285v2.71h-.287c-.158 0-.286-.128-.286-.286v-.27c0-1.168-.846-2.027-.882-2.063-.066-.067-.164-.09-.254-.062-1.399.442-3.371.814-4.824.08-.516-.262-.821-.595-.982-.816.535-.176.95-.364 1.322-.533zm4.038 9.284l-.48 1.65c-.353.19-.75.289-1.153.289s-.8-.1-1.152-.289l-.481-1.65v-.625c.494.24 1.048.374 1.633.374s1.14-.134 1.633-.374v.625zM6.72 9.696c-1.792 0-3.25-1.457-3.25-3.25 0-.138-.112-.251-.251-.251-.14 0-.252.113-.252.252v.017h-.152c-.12 0-.233-.05-.313-.139-.08-.089-.119-.205-.106-.326.02-.212.222-.378.457-.378h.366c.436 0 .79-.354.79-.79V3.88c0-.14-.113-.252-.252-.252s-.252.112-.252.252v.95c0 .159-.128.287-.286.287h-.287V3.574c0-.586.158-.878.23-.981.154.121.335.241.546.351.571.298 1.251.463 2.02.49.902.033 1.933-.125 3.066-.47.2.243.637.857.637 1.597v.27c0 .436.355.79.79.79h.405c.118 0 .232.051.312.14.081.089.119.205.107.326-.022.212-.222.377-.458.377h-.114V6.45c0-.139-.112-.251-.251-.252-.14 0-.252.113-.253.252C9.968 8.24 8.51 9.696 6.72 9.696z" transform="translate(3 4)"/>
                <path fill="#000" d="M11.838 15.218h-.422v-.422c0-.139-.113-.252-.252-.252s-.252.113-.252.252v.422h-.421c-.14 0-.252.113-.252.252s.113.252.252.252h.421v.421c0 .14.113.252.252.252.14 0 .252-.113.252-.252v-.421h.422c.139 0 .252-.113.252-.252 0-.14-.113-.252-.252-.252z" transform="translate(3 4)"/>
            </g>
        </g>
    </g>
</svg>
